<svg
  width="20"
  height="20"
  viewBox="0 0 20 20"
  fill="none"
  xmlns="http://www.w3.org/2000/svg"
>
  <path
    fill-rule="evenodd"
    clip-rule="evenodd"
    d="M9.75238 0.531005C7.40059 0.531005 7.02925 0.531005 6.03903 0.592894C5.0488 0.654784 4.30613 0.778563 3.74912 1.02612C3.13023 1.27368 2.57323 1.58312 2.07811 2.14013C1.52111 2.69713 1.21167 3.19224 0.964108 3.81114C0.716551 4.43003 0.592772 5.11081 0.530883 6.10104C0.468994 7.09127 0.468994 7.4626 0.468994 10.0001C0.468994 12.5994 0.468994 12.9089 0.530883 13.8991C0.592772 14.8893 0.716551 15.632 0.964108 16.189C1.21167 16.8079 1.52111 17.3649 2.07811 17.86C2.63512 18.417 3.13023 18.7264 3.74912 18.974C4.36802 19.2216 5.0488 19.3453 6.03903 19.4072C7.02925 19.4691 7.40059 19.4691 9.93805 19.4691C12.5374 19.4691 12.8468 19.4691 13.8371 19.4072C14.8273 19.3453 15.57 19.2216 16.127 18.974C16.7459 18.7264 17.3029 18.417 17.798 17.86C18.355 17.303 18.6644 16.8079 18.912 16.189C19.1595 15.5701 19.2833 14.8893 19.3452 13.8991C19.4071 12.9089 19.4071 12.5994 19.4071 10.1857V9.69062C19.4071 7.33882 19.4071 6.96749 19.3452 5.97726C19.2833 4.98703 19.1595 4.24436 18.912 3.68736C18.6644 3.06846 18.355 2.51146 17.798 2.01635C17.241 1.45934 16.7459 1.1499 16.127 0.902341C15.5081 0.654784 14.8273 0.531005 13.8371 0.469116C12.8468 0.407227 12.5374 0.407227 10.1237 0.407227H9.75238V0.531005ZM16.2508 4.92514C16.2508 5.54403 15.7556 6.03915 15.1367 6.03915C14.5179 6.03915 14.0227 5.54403 14.0227 4.92514C14.0227 4.30625 14.5179 3.81114 15.1367 3.81114C15.6937 3.81114 16.2508 4.30625 16.2508 4.92514ZM9.99994 13.1564C8.26704 13.1564 6.84359 11.733 6.84359 10.0001C6.84359 8.26716 8.26704 6.84371 9.99994 6.84371C11.7328 6.84371 13.1563 8.26716 13.1563 10.0001C13.1563 11.733 11.7328 13.1564 9.99994 13.1564ZM9.99994 5.11081C12.7231 5.11081 14.8892 7.27693 14.8892 10.0001C14.8892 12.7232 12.7231 14.8893 9.99994 14.8893C7.27681 14.8893 5.11069 12.7232 5.11069 10.0001C5.11069 7.27693 7.3387 5.11081 9.99994 5.11081ZM9.99994 2.20202C12.5374 2.20202 12.8468 2.20202 13.8371 2.2639C14.7654 2.32579 15.2605 2.44957 15.6319 2.57335C16.0651 2.75902 16.3745 2.94469 16.7459 3.25413C17.0553 3.56358 17.3029 3.87303 17.4266 4.36814C17.5504 4.67759 17.7361 5.23459 17.7361 6.16293C17.798 7.15316 17.798 7.4626 17.798 10.0001C17.798 12.5375 17.798 12.847 17.7361 13.8372C17.6742 14.7655 17.5504 15.2606 17.4266 15.632C17.241 16.0652 17.0553 16.3747 16.7459 16.746C16.4364 17.0554 16.127 17.303 15.6319 17.4268C15.3224 17.5506 14.7654 17.7362 13.8371 17.7362C12.8468 17.7981 12.5374 17.7981 9.99994 17.7981C7.46248 17.7981 7.15303 17.7981 6.16281 17.7362C5.23447 17.6743 4.73935 17.5506 4.36802 17.4268C3.93479 17.2411 3.62535 17.0554 3.25401 16.746C2.94456 16.4365 2.69701 16.1271 2.57323 15.632C2.44945 15.3225 2.26378 14.7655 2.26378 13.8372C2.20189 12.847 2.20189 12.5375 2.20189 10.0001C2.20189 7.4626 2.20189 7.15316 2.26378 6.16293C2.32567 5.23459 2.44945 4.73947 2.57323 4.36814C2.7589 3.93491 2.94456 3.62547 3.25401 3.25413C3.56346 2.94469 3.8729 2.69713 4.36802 2.57335C4.67746 2.44957 5.23447 2.2639 6.16281 2.2639C7.15303 2.20202 7.46248 2.20202 9.99994 2.20202Z"
    fill="#666"
  />
</svg>
