<svg
  width="17"
  height="17"
  viewBox="0 0 17 17"
  fill="none"
  xmlns="http://www.w3.org/2000/svg"
>
  <path
    fill-rule="evenodd"
    clip-rule="evenodd"
    d="M1.09989 16.8002H4.39989V6.1002H1.09989V16.8002ZM2.69989 4.7002C2.18025 4.6944 1.68509 4.47854 1.32717 4.10178C0.969248 3.72502 0.779048 3.21944 0.799889 2.7002C0.792388 1.63108 1.63179 0.747495 2.69989 0.700195C3.80446 0.700195 4.69989 1.59563 4.69989 2.7002C4.69989 3.80476 3.80446 4.7002 2.69989 4.7002ZM16.6999 16.8002H13.3999V11.2002C13.3999 9.7002 12.7999 8.8002 11.5999 8.8002C10.2999 8.8002 9.59989 9.7002 9.59989 11.2002V16.8002H6.49989V6.10019H9.59989V7.5002C10.2586 6.3616 11.4848 5.67183 12.7999 5.7002C14.9999 5.7002 16.6999 7.10019 16.6999 9.9002V16.8002Z"
    fill="#666"
  />
</svg>
