<svg
  width="20"
  height="16"
  viewBox="0 0 20 16"
  fill="none"
  xmlns="http://www.w3.org/2000/svg"
>
  <path
    fill-rule="evenodd"
    clip-rule="evenodd"
    d="M17.5504 4.16331C17.798 9.67145 13.7133 15.7366 6.47225 15.7366C4.24424 15.7366 2.20189 15.1177 0.468994 14.0037C2.51134 14.2513 4.61557 13.6943 6.22469 12.3946C4.4918 12.3327 3.06834 11.2187 2.57323 9.67145C3.19212 9.79523 3.81101 9.73334 4.30613 9.60956C2.44945 9.23822 1.14978 7.56721 1.14978 5.71054C1.70678 6.01998 2.26378 6.20565 2.94456 6.20565C1.21166 5.02976 0.716551 2.73985 1.70678 1.00695C3.62535 3.35875 6.53414 4.90598 9.75238 5.09164C9.19538 2.67796 11.0521 0.326172 13.5276 0.326172C14.6416 0.326172 15.6319 0.821286 16.3745 1.56396C17.241 1.37829 18.1074 1.06884 18.8501 0.635618C18.5407 1.56396 17.9218 2.30663 17.1172 2.80174C17.9218 2.67796 18.6644 2.4923 19.3452 2.18285C18.9739 2.92552 18.355 3.6063 17.5504 4.16331Z"
    fill="#666"
  />
</svg>
